REM DIRINDEX 1\2\5,1\2\6,1\2\7,1\2\8,1\3\9,1\3\10,1\3\11,1\4\12,1\4\13,1\4\14,1\4\15,1\4\16
REM DIRNAME cjc034,folder01,folder02,folder03,folder04,folder05,folder06,folder07,folder08,folder09,folder10,folder11,folder12,folder13,folder14,folder15
TITLE ""
FILE "1200_sec01_0032_0039.mp3" MP3
  TRACK 01 AUDIO
    TITLE "0:"
    INDEX 01 00:00:00
  TRACK 02 AUDIO
    TITLE "12:cjc034_03751"
    INDEX 01 00:00:17
  TRACK 03 AUDIO
    TITLE "0:"
    INDEX 01 00:01:38
  TRACK 04 AUDIO
    TITLE "13:cjc034_03752"
    INDEX 01 00:01:71
  TRACK 05 AUDIO
    TITLE "0:"
    INDEX 01 00:03:04
  TRACK 06 AUDIO
    TITLE "14:cjc034_03753"
    INDEX 01 00:03:39
  TRACK 07 AUDIO
    TITLE "0:"
    INDEX 01 00:04:60
  TRACK 08 AUDIO
    TITLE "15:cjc034_03754"
    INDEX 01 00:05:18
  TRACK 09 AUDIO
    TITLE "0:"
    INDEX 01 00:08:13
  TRACK 10 AUDIO
    TITLE "12:cjc034_03755"
    INDEX 01 00:09:45
  TRACK 11 AUDIO
    TITLE "0:"
    INDEX 01 00:10:63
  TRACK 12 AUDIO
    TITLE "13:cjc034_03756"
    INDEX 01 00:11:23
  TRACK 13 AUDIO
    TITLE "0:"
    INDEX 01 00:13:22
  TRACK 14 AUDIO
    TITLE "14:cjc034_03757"
    INDEX 01 00:13:57
  TRACK 15 AUDIO
    TITLE "0:"
    INDEX 01 00:15:01
  TRACK 16 AUDIO
    TITLE "15:cjc034_03758"
    INDEX 01 00:15:34
  TRACK 17 AUDIO
    TITLE "0:"
    INDEX 01 00:18:31
  TRACK 18 AUDIO
    TITLE "12:cjc034_03759"
    INDEX 01 00:19:63
  TRACK 19 AUDIO
    TITLE "0:"
    INDEX 01 00:20:71
  TRACK 20 AUDIO
    TITLE "13:cjc034_03760"
    INDEX 01 00:21:33
  TRACK 21 AUDIO
    TITLE "0:"
    INDEX 01 00:22:27
  TRACK 22 AUDIO
    TITLE "14:cjc034_03761"
    INDEX 01 00:22:64
  TRACK 23 AUDIO
    TITLE "0:"
    INDEX 01 00:23:71
  TRACK 24 AUDIO
    TITLE "15:cjc034_03762"
    INDEX 01 00:24:29
  TRACK 25 AUDIO
    TITLE "0:"
    INDEX 01 00:27:47
  TRACK 26 AUDIO
    TITLE "12:cjc034_03763"
    INDEX 01 00:29:09
  TRACK 27 AUDIO
    TITLE "0:"
    INDEX 01 00:30:10
  TRACK 28 AUDIO
    TITLE "13:cjc034_03764"
    INDEX 01 00:30:44
  TRACK 29 AUDIO
    TITLE "0:"
    INDEX 01 00:31:57
  TRACK 30 AUDIO
    TITLE "14:cjc034_03765"
    INDEX 01 00:32:17
  TRACK 31 AUDIO
    TITLE "0:"
    INDEX 01 00:33:21
  TRACK 32 AUDIO
    TITLE "15:cjc034_03766"
    INDEX 01 00:33:54
  TRACK 33 AUDIO
    TITLE "0:"
    INDEX 01 00:37:01
  TRACK 34 AUDIO
    TITLE "12:cjc034_03767"
    INDEX 01 00:38:35
  TRACK 35 AUDIO
    TITLE "0:"
    INDEX 01 00:39:54
  TRACK 36 AUDIO
    TITLE "13:cjc034_03768"
    INDEX 01 00:40:13
  TRACK 37 AUDIO
    TITLE "0:"
    INDEX 01 00:41:04
  TRACK 38 AUDIO
    TITLE "14:cjc034_03769"
    INDEX 01 00:41:38
  TRACK 39 AUDIO
    TITLE "0:"
    INDEX 01 00:42:55
  TRACK 40 AUDIO
    TITLE "15:cjc034_03770"
    INDEX 01 00:43:17
  TRACK 41 AUDIO
    TITLE "0:"
    INDEX 01 00:46:00
  TRACK 42 AUDIO
    TITLE "16:cjc034_03771"
    INDEX 01 00:47:34
  TRACK 43 AUDIO
    TITLE "0:"
    INDEX 01 00:49:16
  TRACK 44 AUDIO
    TITLE "12:cjc034_03772"
    INDEX 01 00:50:23
  TRACK 45 AUDIO
    TITLE "0:"
    INDEX 01 00:51:36
  TRACK 46 AUDIO
    TITLE "13:cjc034_03773"
    INDEX 01 00:51:71
  TRACK 47 AUDIO
    TITLE "0:"
    INDEX 01 00:55:06
  TRACK 48 AUDIO
    TITLE "14:cjc034_03774"
    INDEX 01 00:55:44
  TRACK 49 AUDIO
    TITLE "0:"
    INDEX 01 00:56:57
  TRACK 50 AUDIO
    TITLE "15:cjc034_03775"
    INDEX 01 00:57:15
  TRACK 51 AUDIO
    TITLE "0:"
    INDEX 01 01:01:23
  TRACK 52 AUDIO
    TITLE "12:cjc034_03776"
    INDEX 01 01:02:61
  TRACK 53 AUDIO
    TITLE "0:"
    INDEX 01 01:04:17
  TRACK 54 AUDIO
    TITLE "13:cjc034_03777"
    INDEX 01 01:04:52
  TRACK 55 AUDIO
    TITLE "0:"
    INDEX 01 01:07:10
  TRACK 56 AUDIO
    TITLE "14:cjc034_03778"
    INDEX 01 01:07:45
  TRACK 57 AUDIO
    TITLE "0:"
    INDEX 01 01:09:01
  TRACK 58 AUDIO
    TITLE "15:cjc034_03779"
    INDEX 01 01:09:34
  TRACK 59 AUDIO
    TITLE "0:"
    INDEX 01 01:13:12
  TRACK 60 AUDIO
    TITLE "12:cjc034_03780"
    INDEX 01 01:14:47
  TRACK 61 AUDIO
    TITLE "0:"
    INDEX 01 01:15:56
  TRACK 62 AUDIO
    TITLE "13:cjc034_03781"
    INDEX 01 01:16:14
  TRACK 63 AUDIO
    TITLE "0:"
    INDEX 01 01:18:72
  TRACK 64 AUDIO
    TITLE "14:cjc034_03782"
    INDEX 01 01:19:32
  TRACK 65 AUDIO
    TITLE "0:"
    INDEX 01 01:20:40
  TRACK 66 AUDIO
    TITLE "15:cjc034_03783"
    INDEX 01 01:21:00
  TRACK 67 AUDIO
    TITLE "0:"
    INDEX 01 01:24:22
